HIERARCHY
ROOT Hips
{
	OFFSET 0.000000 35.082581 0.000000
	CHANNELS 6 Xposition Yposition Zposition Xrotation Yrotation Zrotation 
	JOINT Spine
	{
		OFFSET 0.000000 6.876099 0.125700
		CHANNELS 3 Xrotation Yrotation Zrotation
		JOINT Spine1
		{
			OFFSET 0.000000 5.730043 0.104720
			CHANNELS 3 Xrotation Yrotation Zrotation
			JOINT Spine1_split
			{
				OFFSET 0.000000 5.730043 0.104720
				CHANNELS 3 Xrotation Yrotation Zrotation
				JOINT Spine2
				{
					OFFSET 0.000000 5.730043 0.104720
					CHANNELS 3 Xrotation Yrotation Zrotation
					JOINT Neck
					{
						OFFSET 0.000000 10.314075 0.188496
						CHANNELS 3 Xrotation Yrotation Zrotation
						JOINT Head
						{
							OFFSET 0.000000 7.643700 -2.377400
							CHANNELS 3 Xrotation Yrotation Zrotation
							JOINT HeadTop_End
							{
								OFFSET 0.000000 43.788605 -13.619600
								CHANNELS 3 Xrotation Yrotation Zrotation
								End Site
								{
									OFFSET 0.000000 0.000000 0.000000
								}
							}
						}
					}
					JOINT LeftShoulder
					{
						OFFSET 2.196100 4.412489 0.087492
						CHANNELS 3 Xrotation Yrotation Zrotation
						JOINT LeftShoulder_split
						{
							OFFSET 2.196100 4.412489 0.087492
							CHANNELS 3 Xrotation Yrotation Zrotation
							JOINT LeftArm
							{
								OFFSET 8.771219 -2.981674 -0.026999
								CHANNELS 3 Xrotation Yrotation Zrotation
								JOINT LeftForeArm
								{
									OFFSET 8.512804 0.000000 -0.000000
									CHANNELS 3 Xrotation Yrotation Zrotation
									JOINT LeftHand
									{
										OFFSET 18.484802 0.000000 -0.000000
										CHANNELS 3 Xrotation Yrotation Zrotation
										JOINT LeftHandThumb1
										{
											OFFSET 2.499420 -1.158070 2.653252
											CHANNELS 3 Xrotation Yrotation Zrotation
											JOINT LeftHandThumb2
											{
												OFFSET 2.370079 -1.368366 1.368366
												CHANNELS 3 Xrotation Yrotation Zrotation
												JOINT LeftHandThumb3
												{
													OFFSET 2.676727 -1.545410 1.545409
													CHANNELS 3 Xrotation Yrotation Zrotation
													JOINT LeftHandThumb4
													{
														OFFSET 1.692226 -0.977005 0.977007
														CHANNELS 3 Xrotation Yrotation Zrotation
														End Site
														{
															OFFSET 0.000000 0.000000 0.000000
														}
													}
												}
											}
										}
										JOINT LeftHandIndex1
										{
											OFFSET 7.924831 -0.457527 2.345128
											CHANNELS 3 Xrotation Yrotation Zrotation
											JOINT LeftHandIndex2
											{
												OFFSET 3.643303 0.000000 0.000000
												CHANNELS 3 Xrotation Yrotation Zrotation
												JOINT LeftHandIndex3
												{
													OFFSET 3.810799 0.000000 0.000000
													CHANNELS 3 Xrotation Yrotation Zrotation
													JOINT LeftHandIndex4
													{
														OFFSET 2.403702 0.000000 0.000000
														CHANNELS 3 Xrotation Yrotation Zrotation
														End Site
														{
															OFFSET 0.000000 0.000000 0.000000
														}
													}
												}
											}
										}
										JOINT LeftHandMiddle1
										{
											OFFSET 8.563995 0.000000 -0.000000
											CHANNELS 3 Xrotation Yrotation Zrotation
											JOINT LeftHandMiddle2
											{
												OFFSET 3.861618 0.000000 0.000000
												CHANNELS 3 Xrotation Yrotation Zrotation
												JOINT LeftHandMiddle3
												{
													OFFSET 3.701603 0.000000 0.000000
													CHANNELS 3 Xrotation Yrotation Zrotation
													JOINT LeftHandMiddle4
													{
														OFFSET 2.322544 0.000000 0.000000
														CHANNELS 3 Xrotation Yrotation Zrotation
														End Site
														{
															OFFSET 0.000000 0.000000 0.000000
														}
													}
												}
											}
										}
										JOINT LeftHandRing1
										{
											OFFSET 8.426460 -0.424637 -3.286992
											CHANNELS 3 Xrotation Yrotation Zrotation
											JOINT LeftHandRing2
											{
												OFFSET 3.126408 0.000000 0.000000
												CHANNELS 3 Xrotation Yrotation Zrotation
												JOINT LeftHandRing3
												{
													OFFSET 3.085026 0.000000 0.000000
													CHANNELS 3 Xrotation Yrotation Zrotation
													JOINT LeftHandRing4
													{
														OFFSET 1.644005 0.000000 0.000000
														CHANNELS 3 Xrotation Yrotation Zrotation
														End Site
														{
															OFFSET 0.000000 0.000000 0.000000
														}
													}
												}
											}
										}
									}
								}
							}
						}
					}
					JOINT RightShoulder
					{
						OFFSET -2.196100 4.412496 0.070690
						CHANNELS 3 Xrotation Yrotation Zrotation
						JOINT RightShoulder_split
						{
							OFFSET -2.196100 4.412496 0.070690
							CHANNELS 3 Xrotation Yrotation Zrotation
							JOINT RightArm
							{
								OFFSET -8.771282 -2.981682 -0.094208
								CHANNELS 3 Xrotation Yrotation Zrotation
								JOINT RightForeArm
								{
									OFFSET -8.494598 0.000000 0.000000
									CHANNELS 3 Xrotation Yrotation Zrotation
									JOINT RightHand
									{
										OFFSET -18.483803 0.000000 0.000001
										CHANNELS 3 Xrotation Yrotation Zrotation
										JOINT RightHandThumb1
										{
											OFFSET -2.527351 -1.008072 2.575253
											CHANNELS 3 Xrotation Yrotation Zrotation
											JOINT RightHandThumb2
											{
												OFFSET -2.321518 -1.340328 1.340329
												CHANNELS 3 Xrotation Yrotation Zrotation
												JOINT RightHandThumb3
												{
													OFFSET -2.657753 -1.534454 1.534455
													CHANNELS 3 Xrotation Yrotation Zrotation
													JOINT RightHandThumb4
													{
														OFFSET -1.807510 -1.043568 1.043567
														CHANNELS 3 Xrotation Yrotation Zrotation
														End Site
														{
															OFFSET 0.000000 0.000000 0.000000
														}
													}
												}
											}
										}
										JOINT RightHandIndex1
										{
											OFFSET -8.811420 0.015533 2.887987
											CHANNELS 3 Xrotation Yrotation Zrotation
											JOINT RightHandIndex2
											{
												OFFSET -3.537502 0.000000 0.000000
												CHANNELS 3 Xrotation Yrotation Zrotation
												JOINT RightHandIndex3
												{
													OFFSET -3.356201 0.000000 0.000000
													CHANNELS 3 Xrotation Yrotation Zrotation
													JOINT RightHandIndex4
													{
														OFFSET -1.933098 0.000000 0.000000
														CHANNELS 3 Xrotation Yrotation Zrotation
														End Site
														{
															OFFSET 0.000000 0.000000 0.000000
														}
													}
												}
											}
										}
										JOINT RightHandMiddle1
										{
											OFFSET -8.178135 0.000000 0.000000
											CHANNELS 3 Xrotation Yrotation Zrotation
											JOINT RightHandMiddle2
											{
												OFFSET -3.901302 0.000000 0.000000
												CHANNELS 3 Xrotation Yrotation Zrotation
												JOINT RightHandMiddle3
												{
													OFFSET -3.909599 0.000000 0.000000
													CHANNELS 3 Xrotation Yrotation Zrotation
													JOINT RightHandMiddle4
													{
														OFFSET -2.376003 0.000000 0.000000
														CHANNELS 3 Xrotation Yrotation Zrotation
														End Site
														{
															OFFSET 0.000000 0.000000 0.000000
														}
													}
												}
											}
										}
										JOINT RightHandRing1
										{
											OFFSET -7.559013 0.014137 -2.865403
											CHANNELS 3 Xrotation Yrotation Zrotation
											JOINT RightHandRing2
											{
												OFFSET -3.449306 0.000000 0.000000
												CHANNELS 3 Xrotation Yrotation Zrotation
												JOINT RightHandRing3
												{
													OFFSET -3.362106 0.000000 0.000000
													CHANNELS 3 Xrotation Yrotation Zrotation
													JOINT RightHandRing4
													{
														OFFSET -2.076401 0.000000 0.000000
														CHANNELS 3 Xrotation Yrotation Zrotation
														End Site
														{
															OFFSET 0.000000 0.000000 0.000000
														}
													}
												}
											}
										}
									}
								}
							}
						}
					}
				}
			}
		}
	}
	JOINT LeftUpLeg
	{
		OFFSET 10.205400 -3.823500 0.155100
		CHANNELS 3 Xrotation Yrotation Zrotation
		JOINT LeftLeg
		{
			OFFSET 0.708757 -12.982077 0.567790
			CHANNELS 3 Xrotation Yrotation Zrotation
			JOINT LeftFoot
			{
				OFFSET -0.708756 -10.717838 -2.184338
				CHANNELS 3 Xrotation Yrotation Zrotation
				JOINT LeftToeBase
				{
					OFFSET 0.108149 -7.191104 7.560241
					CHANNELS 3 Xrotation Yrotation Zrotation
					JOINT LeftToe_End
					{
						OFFSET 0.070230 0.081724 4.490308
						CHANNELS 3 Xrotation Yrotation Zrotation
						End Site
						{
							OFFSET 0.000000 0.000000 0.000000
						}
					}
				}
			}
		}
	}
	JOINT RightUpLeg
	{
		OFFSET -10.205400 -3.823500 0.005500
		CHANNELS 3 Xrotation Yrotation Zrotation
		JOINT RightLeg
		{
			OFFSET -0.708756 -12.982134 0.610632
			CHANNELS 3 Xrotation Yrotation Zrotation
			JOINT RightFoot
			{
				OFFSET 0.708754 -10.717769 -1.945823
				CHANNELS 3 Xrotation Yrotation Zrotation
				JOINT RightToeBase
				{
					OFFSET -0.108140 -7.191069 7.372968
					CHANNELS 3 Xrotation Yrotation Zrotation
					JOINT RightToe_End
					{
						OFFSET -0.070227 0.081735 4.479403
						CHANNELS 3 Xrotation Yrotation Zrotation
						End Site
						{
							OFFSET 0.000000 0.000000 0.000000
						}
					}
				}
			}
		}
	}
}
MOTION
Frames: 4
Frame Time: 0.016667
-0.965054 20.243332 4.088518 38.578862 -53.482321 30.856910 8.241236 -2.247858 -2.660964 3.592001 -3.361499 -2.519241 0.000000 0.000000 0.000000 3.576392 -3.306015 -2.583296 -4.843159 17.213127 -6.645893 -39.838718 36.524385 9.074953 0.000000 0.000000 0.000000 5.547264 -8.009824 -6.641002 0.000000 0.000000 0.000000 -64.034267 1.869214 -22.502830 21.515682 -29.366805 16.956535 -2.616368 -8.068164 2.194880 40.109927 -15.297158 -0.360487 5.639817 28.097906 11.338837 1.088580 40.896287 22.734052 -0.000003 -0.000000 -0.000002 6.880108 2.821181 -61.138608 8.247985 7.640095 -89.897884 2.146112 8.173440 -41.827730 -0.000000 -0.000001 0.000000 -2.344789 4.689027 -62.667887 8.755256 9.896968 -87.054702 1.995382 4.929296 -37.483422 -0.000000 -0.000000 -0.000003 -9.042473 10.045679 -60.766178 8.524150 9.509025 -66.902550 6.576573 9.896774 -70.385099 -0.000001 -0.000000 0.000003 5.583223 9.006415 15.903916 0.000000 0.000000 0.000000 -10.769862 1.892024 48.290841 -18.711324 38.477253 8.552176 6.179190 2.978091 -16.977731 -6.830673 -6.304599 5.093509 1.899683 -22.662921 -8.729812 -1.009219 6.019741 3.060251 0.000002 -0.000001 0.000002 -0.976052 0.915621 -2.034110 0.028899 -0.078692 8.598521 -0.002791 -2.007115 -2.090631 0.000003 0.000001 -0.000000 1.418800 -6.781364 2.948468 1.033159 -4.271114 20.381554 0.107784 1.709304 -0.583013 -0.000001 -0.000002 -0.000001 -5.862018 -13.951766 7.701493 1.592891 -4.798650 20.257212 1.025481 -4.086469 17.156400 0.000000 -0.000000 -0.000000 -75.110450 -19.446028 40.304461 106.238607 -27.902284 -1.923541 -45.874569 4.921582 -14.251808 -1.836425 -0.000611 -0.000034 0.000000 0.000005 0.000000 -68.365180 4.733089 -47.206689 106.161541 27.167562 4.513104 -51.822838 -6.618469 10.830993 0.710687 0.013975 -0.061736 0.000000 -0.000000 0.000000 
-0.934375 19.609188 4.039990 39.168140 -53.309097 31.196729 7.955677 -2.185722 -2.559797 3.758346 -3.279244 -2.496422 0.000000 0.000000 0.000000 3.743204 -3.226211 -2.558057 -4.149933 17.553337 -7.160898 -39.823042 36.047181 8.584216 -0.000000 -0.000000 0.000000 5.745027 -8.108517 -6.895800 0.000000 0.000000 0.000000 -64.657023 0.940649 -22.490093 22.078540 -28.805698 16.993225 -2.188453 -8.346553 1.944080 40.109931 -15.297160 -0.360485 5.639814 28.097906 11.338841 1.088585 40.896287 22.734051 -0.000004 0.000001 -0.000002 6.879320 2.813754 -61.137884 8.247987 7.640093 -89.897878 2.146111 8.173441 -41.827730 -0.000001 0.000000 -0.000000 -2.346736 4.689031 -62.672819 8.755129 9.897012 -87.054470 1.995386 4.929293 -37.483426 0.000000 -0.000001 0.000004 -9.042475 10.045673 -60.766171 8.524209 9.509110 -66.906231 6.576574 9.896778 -70.385099 0.000001 -0.000000 -0.000001 5.819265 9.101616 16.094144 0.000000 0.000000 0.000000 -10.347738 2.384204 47.454440 -19.056450 39.289642 8.937006 5.144261 3.543866 -17.909692 -7.273793 -5.961019 4.974728 1.807458 -22.244893 -8.652298 -1.201057 6.515392 3.220148 0.000006 -0.000000 -0.000000 -0.860003 0.831742 -2.769302 0.027986 -0.078738 7.696509 -0.008817 -2.006676 -2.292500 -0.000001 0.000001 -0.000000 1.401317 -6.841175 1.747795 0.975751 -4.290832 19.317641 0.118828 1.706400 -0.996370 -0.000000 0.000001 0.000001 -5.234652 -14.009314 5.961755 1.421479 -4.592392 19.068155 0.993365 -4.093291 16.411729 0.000001 0.000000 0.000000 -76.526191 -21.693077 41.682251 108.514617 -29.700753 -2.361420 -46.195575 4.749681 -14.226191 -1.836425 -0.000606 -0.000032 0.000000 -0.000003 -0.000000 -69.698542 6.091859 -48.743293 108.620915 29.519821 4.975193 -52.436250 -6.182889 9.853174 0.458980 0.014339 -0.062028 0.000000 -0.000000 0.000000 
-0.911900 18.981197 3.994139 39.704832 -53.203677 31.552387 7.661055 -2.110232 -2.473424 3.920447 -3.180472 -2.492621 0.000000 0.000000 0.000000 3.905909 -3.129780 -2.551258 -3.463323 17.929192 -7.697885 -39.698115 35.578602 8.116825 -0.000000 -0.000000 -0.000000 5.951872 -8.061980 -6.968073 0.000000 0.000000 0.000000 -65.208560 0.226332 -22.718857 22.758006 -28.220332 17.107341 -1.837092 -8.526895 1.949946 40.109931 -15.297160 -0.360483 5.639805 28.097897 11.338843 1.088570 40.896284 22.734051 -0.000006 0.000002 -0.000000 6.878499 2.806584 -61.137180 8.247986 7.640092 -89.897884 2.146111 8.173442 -41.827727 0.000002 0.000000 0.000002 -2.348156 4.689090 -62.677661 8.755052 9.896959 -87.054306 1.995383 4.929296 -37.483426 -0.000001 -0.000002 -0.000002 -9.042474 10.045676 -60.766171 8.524227 9.509193 -66.909872 6.576575 9.896775 -70.385086 -0.000003 0.000001 0.000004 6.023424 9.139914 16.277676 0.000000 0.000000 0.000000 -9.808064 2.869024 46.606363 -19.217654 39.891399 9.114123 4.158439 3.984978 -18.528406 -7.704065 -5.623292 4.866714 1.718611 -21.838353 -8.575991 -1.382527 6.990668 3.375550 -0.000000 -0.000000 0.000001 -0.751785 0.746901 -3.402918 0.027164 -0.078827 6.886468 -0.014212 -2.006388 -2.473971 -0.000001 -0.000002 0.000003 1.379478 -6.896977 0.604306 0.922507 -4.309000 18.305595 0.129002 1.703401 -1.392422 0.000001 -0.000001 0.000000 -4.598588 -14.115959 4.200482 1.257793 -4.370516 17.870681 0.962691 -4.099229 15.657732 0.000000 -0.000000 -0.000001 -77.663301 -23.931383 43.219006 110.581371 -31.607185 -2.854462 -46.423816 4.565088 -14.229648 -1.836429 -0.000606 -0.000033 0.000000 -0.000005 -0.000000 -71.039158 7.768294 -50.424056 110.950010 32.056547 5.495290 -52.419404 -5.755845 8.994726 0.115783 0.014799 -0.062311 0.000000 0.000000 -0.000000 
-0.892723 18.362160 3.962678 40.236716 -53.126888 31.916784 7.362176 -2.028161 -2.392033 4.076466 -3.077114 -2.496173 0.000000 0.000000 0.000000 4.062594 -3.028783 -2.551579 -2.778636 18.321554 -8.229655 -39.519317 35.119275 7.656167 -0.000000 -0.000000 -0.000000 6.122416 -8.035486 -6.996234 0.000000 0.000000 0.000000 -65.715852 -0.383016 -22.932767 23.412092 -27.614426 17.207460 -1.507588 -8.660996 1.990329 40.109927 -15.297165 -0.360482 5.639816 28.097902 11.338841 1.088577 40.896277 22.734049 -0.000001 -0.000000 -0.000004 6.877749 2.799585 -61.136463 8.247986 7.640092 -89.897878 2.146111 8.173446 -41.827730 0.000001 0.000002 -0.000004 -2.348866 4.689114 -62.682381 8.754990 9.896979 -87.054053 1.995382 4.929298 -37.483429 -0.000001 0.000002 0.000000 -9.042478 10.045676 -60.766171 8.524220 9.509267 -66.913717 6.576571 9.896778 -70.385093 0.000000 0.000001 -0.000003 6.224911 9.159317 16.434226 0.000000 0.000000 0.000000 -9.202602 3.322519 45.736760 -19.298986 40.213900 9.212680 3.214240 4.447920 -18.922699 -8.110753 -5.297892 4.771019 1.635678 -21.450148 -8.501634 -1.547855 7.438885 3.524325 0.000001 -0.000000 -0.000000 -0.653786 0.663565 -3.905967 0.026722 -0.078776 6.195278 -0.018449 -2.003883 -2.623005 0.000004 -0.000002 0.000003 1.354103 -6.946220 -0.446399 0.875441 -4.325229 17.387384 0.138234 1.700164 -1.755961 0.000001 -0.000000 -0.000002 -3.971854 -14.268016 2.470776 1.106185 -4.136308 16.709315 0.934632 -4.104599 14.921737 -0.000002 0.000001 0.000001 -78.621235 -26.199265 44.899635 112.485388 -33.606375 -3.399601 -46.545431 4.346438 -14.237532 -1.836430 -0.000604 -0.000034 0.000000 0.000000 0.000000 -72.329121 9.653801 -52.083618 113.220849 34.445675 6.025451 -52.119340 -5.298687 8.132676 -0.302633 0.015256 -0.062559 0.000000 -0.000000 0.000000 
